<svg width="110" height="100" viewBox="0 0 110 100" xmlns="http://www.w3.org/2000/svg" xmlns:xlink="http://www.w3.org/1999/xlink">
    <defs>
        <filter x="-10.5%" y="-31.8%" width="121.1%" height="172.7%" filterUnits="objectBoundingBox" id="lkwx3zb8nc">
            <feOffset dy="1" in="SourceAlpha" result="shadowOffsetOuter1"/>
            <feGaussianBlur stdDeviation="2.5" in="shadowOffsetOuter1" result="shadowBlurOuter1"/>
            <feColorMatrix values="0 0 0 0 0 0 0 0 0 0 0 0 0 0 0 0 0 0 0.2 0" in="shadowBlurOuter1" result="shadowMatrixOuter1"/>
            <feMorphology radius="1" in="SourceAlpha" result="shadowSpreadOuter2"/>
            <feOffset dy="3" in="shadowSpreadOuter2" result="shadowOffsetOuter2"/>
            <feGaussianBlur stdDeviation=".5" in="shadowOffsetOuter2" result="shadowBlurOuter2"/>
            <feColorMatrix values="0 0 0 0 0 0 0 0 0 0 0 0 0 0 0 0 0 0 0.12 0" in="shadowBlurOuter2" result="shadowMatrixOuter2"/>
            <feOffset dy="2" in="SourceAlpha" result="shadowOffsetOuter3"/>
            <feGaussianBlur stdDeviation="1" in="shadowOffsetOuter3" result="shadowBlurOuter3"/>
            <feColorMatrix values="0 0 0 0 0 0 0 0 0 0 0 0 0 0 0 0 0 0 0.14 0" in="shadowBlurOuter3" result="shadowMatrixOuter3"/>
            <feMerge>
                <feMergeNode in="shadowMatrixOuter1"/>
                <feMergeNode in="shadowMatrixOuter2"/>
                <feMergeNode in="shadowMatrixOuter3"/>
            </feMerge>
        </filter>
        <rect id="ujy8ydboud" x="0" y="0" width="76" height="22" rx="11"/>
        <path d="M7.776 7.295c22.7-4.617 69.678-12.612 88.408-2.162 12.487 6.967 15.205 27.9 8.155 62.799H5.007C-2.491 29.407-1.568 9.195 7.776 7.295z" id="vf4ldmfnpa"/>
    </defs>
    <g fill="none" fill-rule="evenodd">
        <g transform="translate(3.045 7.431)">
            <mask id="veg9603hob" fill="#fff">
                <use xlink:href="#vf4ldmfnpa"/>
            </mask>
            <g mask="url(#veg9603hob)">
                <path d="M57.86 50.071s6.288 2.886 7.228 9.378c.941 6.492-11.872 9.787-16.955 6.42-2.808-1.859-2.753-5.779-1.668-9.138 1.085-3.36 3.73-5.727 3.73-5.727l7.665-.933z" fill="#000"/>
                <path d="M58.944 48.027s12.025 12.457 8.86 17.585c-3.164 5.128-16.382 7.107-23.963 2.865-3.848-2.153-2.042-8.32-.327-12.677 1.715-4.358 5.371-7.252 5.371-7.252l10.059-.52z" fill="#FFFDA5"/>
                <path d="m48.82 47.31 10.06-.522a1.24 1.24 0 0 1 .956.378 65.6 65.6 0 0 1 4.59 5.433c1.087 1.44 2.042 2.851 2.829 4.206 2.275 3.917 3.043 7.129 1.605 9.458-3.64 5.899-17.7 7.73-25.625 3.296-4.031-2.255-3.645-7.175-.875-14.213.541-1.375 1.286-2.687 2.186-3.93a22.166 22.166 0 0 1 2.413-2.797c.506-.496.91-.848 1.156-1.043a1.24 1.24 0 0 1 .706-.266zm.544 2.454-.192.175a19.706 19.706 0 0 0-2.618 2.934c-.784 1.082-1.426 2.214-1.886 3.381-2.31 5.87-2.619 9.8-.222 11.14 6.865 3.842 19.441 2.203 22.303-2.434.793-1.285.21-3.726-1.64-6.91-.732-1.26-1.633-2.591-2.663-3.959a63.152 63.152 0 0 0-3.85-4.62l-.163-.175-9.069.468z" fill="#222" fill-rule="nonzero"/>
                <path fill="#11D073" d="m43.614 70.678-1.71 3.097"/>
            </g>
            <g mask="url(#veg9603hob)">
                <path d="M69.37 58.525s2.189 4.911 6.428 1.916c3.612-2.553-.929-8.353-.929-8.353l-5.499 6.437z" fill="#37D787"/>
                <path d="M70.616 60.613c2.242 1.95 4.789 2.212 6.899-.265 1.36-1.597 1.183-3.534.008-5.478-.468-.775-1.073-1.52-1.76-2.222-.48-.491-.898-.862-1.169-1.079a1.265 1.265 0 0 0-1.776.193l-4.1 5.08a1.265 1.265 0 0 0-.088 1.463c.406.651 1.084 1.523 1.986 2.308zm.677-2.936 2.646-3.275c.435.446.815.89 1.128 1.334l.29.442c.674 1.115.748 1.923.231 2.53-1.043 1.224-2.014 1.124-3.311-.004a8.282 8.282 0 0 1-.897-.919l-.087-.108z" fill="#222" fill-rule="nonzero"/>
                <g>
                    <path d="M69.976 57.872s4.231-2.134 4.683-4.474c0 0-6.735-5.966-11.095-7.26l-1.9 1.66c4.224 4.61 6.995 7.967 8.312 10.074z" fill="#FFF"/>
                    <path d="m60.59 48.47.14.184c4.176 4.554 6.909 7.866 8.173 9.888a1.265 1.265 0 0 0 1.642.46c.073-.037.194-.1.356-.19.929-.514 1.902-1.152 2.762-1.889 1.207-1.033 2.01-2.105 2.238-3.285.085-.439-.068-.89-.403-1.187-.34-.3-.938-.811-1.728-1.45a60.999 60.999 0 0 0-4.039-3.023c-2.206-1.502-4.165-2.565-5.807-3.053a1.265 1.265 0 0 0-1.192.26l-1.901 1.661a1.265 1.265 0 0 0-.1 1.808l-.14-.185zm2.877-.57.375-.327.313.123c1.01.425 2.192 1.084 3.493 1.933l.66.44a58.533 58.533 0 0 1 3.869 2.897c.253.205.485.395.693.569l.275.23-.063.106c-.18.261-.428.543-.736.835l-.328.295c-.355.304-.743.594-1.14.862l-.508.324-.18-.26c-1.327-1.849-3.372-4.307-6.146-7.39l-.577-.637z" fill="#222" fill-rule="nonzero"/>
                </g>
            </g>
        </g>
        <g transform="scale(-1 1) rotate(18 -59.312 -305.126)">
            <path d="M98.23 2.786s-7.408 25.41-43.75 32.953C18.137 43.282 1.184 22.927 1.184 22.927l14.72-6.342 24.053-10.23L63.187 2.8l35.043-.013z" fill="#222"/>
            <path d="M98.23 1.603c.788 0 1.357.757 1.136 1.514-.09.311-.28.862-.586 1.618a37.483 37.483 0 0 1-1.975 4.1c-2.336 4.212-5.553 8.418-9.79 12.34-7.982 7.388-18.628 12.887-32.295 15.723-18.268 3.791-33.213 1.105-44.899-5.704-2.79-1.625-5.166-3.37-7.137-5.118A30.843 30.843 0 0 1 .898 24.37c-.304-.318-.512-.55-.624-.684a1.183 1.183 0 0 1 .441-1.844l14.726-6.345 24.053-10.23.284-.08 23.409-3.57 35.042-.013zm-1.695 2.364-33.169.001-23.084 3.535-23.91 10.169L3.21 23.34l.29.277c.113.107.233.218.359.333l.395.356c1.858 1.647 4.109 3.3 6.759 4.843 11.192 6.522 25.544 9.102 43.226 5.432 13.245-2.749 23.501-8.047 31.169-15.143 4.045-3.744 7.109-7.75 9.327-11.75a35.129 35.129 0 0 0 1.85-3.84l-.05.119z" fill="#222" fill-rule="nonzero"/>
            <path d="M25.387 5.305c-.115.03-2.707 10.027-2.827 10.07-.482.174-.966.419-1.437.73-.11.073-.218.148-.324.225-1.07.78-1.876 1.927-2.335 3.317-.21.638-.34 1.372-.382 2.18-.029.562.004 1.18.101 1.89.16 1.162.56 2.391 1.158 3.554a11.387 11.387 0 0 0 2.234 2.994c.952.906 2.004 1.589 3.127 2.028a8.016 8.016 0 0 0 3.702.502c.196-.019.41-.051.672-.102a.572.572 0 0 0 .213-.084.578.578 0 0 0 .233-.629.676.676 0 0 0-.073-.18c.51-.291.882-.83 1.067-1.392.205-.62.264-1.263.311-1.924.1-1.417.182-2.836.246-4.258.06-1.343.13-2.705-.062-4.065-.164-1.176-.492-2.544-1.413-3.405a25.282 25.282 0 0 1-1.098-4.643 30.643 30.643 0 0 1-.167-6.548c.042-.541-3.367-2.294-2.946-.26z" fill="#FFC27B"/>
            <path d="M26.172 14.844a5.24 5.24 0 0 0-2.209.722 5.503 5.503 0 0 0-.927.73 4.049 4.049 0 0 0-.16.158c-.239.25-.444.527-.64.812-.433.63-.705 1.368-.881 2.106a8.399 8.399 0 0 0-.205 1.516 8.622 8.622 0 0 0-.068.445c-.178 1.408-.053 2.831.265 4.22a12.874 12.874 0 0 0 1.61 3.901c.36.58.786 1.118 1.256 1.617.442.47.948.87 1.496 1.216a5.723 5.723 0 0 0 4.764.607c.325-.103.64-.246.94-.403a5.148 5.148 0 0 0 1.45-1.157c.44-.498.76-1.082.973-1.705.099-.29.17-.582.214-.884.056-.377.06-.76.064-1.141a24.6 24.6 0 0 0-.42-4.784c-.303-1.606-.83-3.192-1.691-4.606a8.449 8.449 0 0 0-1.523-1.842 7.619 7.619 0 0 0-.945-.714 5.037 5.037 0 0 0-1.116-.54 5.327 5.327 0 0 0-2.247-.274z" fill="#E26E42"/>
            <path d="M24.382 29.468a1.176 1.176 0 0 1 1.63.333c3.636 5.503 9.096 7.262 16.666 5.29a1.176 1.176 0 1 1 .594 2.276c-8.5 2.214-15.002.12-19.223-6.27a1.176 1.176 0 0 1 .333-1.63z" fill="#E26E42" fill-rule="nonzero"/>
            <path d="M42.977 19.431c1.262 5.445-2.14 10.88-7.598 12.14-5.459 1.259-10.907-2.135-12.17-7.58-1.262-5.445 2.14-10.88 7.599-12.14 5.458-1.259 10.907 2.135 12.17 7.58" fill="#37D787"/>
            <path d="M30.88 11.686c6.154-1.42 12.298 2.407 13.722 8.548 1.424 6.143-2.414 12.273-8.569 13.693-6.154 1.42-12.297-2.407-13.721-8.548-1.424-6.143 2.413-12.273 8.568-13.693zm11.2 9.133c-1.1-4.749-5.855-7.71-10.618-6.61-4.762 1.098-7.73 5.838-6.628 10.585 1.1 4.749 5.854 7.71 10.618 6.61 4.762-1.098 7.728-5.838 6.628-10.585z" fill="#222" fill-rule="nonzero"/>
            <path d="M27.656 23.713a.98.98 0 0 1 1.329.393c.108.2.36.547.744.896 1.016.926 2.257 1.216 3.886.508a.98.98 0 0 1 .781 1.797c-2.386 1.038-4.433.56-5.987-.857-.565-.515-.941-1.032-1.146-1.408a.98.98 0 0 1 .393-1.329z" fill="#FFFDA5" fill-rule="nonzero"/>
            <path d="M73.75 3.107a10.122 10.122 0 0 0-7.076 5.967c-3.235-4.58-8.498-7.657-14.545-7.878C41.855.82 33.22 8.824 32.844 19.072c-.377 10.249 7.647 18.862 17.921 19.238 10.037.367 18.504-7.263 19.242-17.17.076.048.158.088.237.134a10.139 10.139 0 0 0 8.078 1.551c5.458-1.259 8.86-6.694 7.598-12.139-1.262-5.445-6.71-8.838-12.17-7.579z" fill="#37D787"/>
            <path d="m51.506 0 .667.014c5.477.2 10.5 2.625 14.043 6.587l.26.303.333-.492a11.288 11.288 0 0 1 6.048-4.294l.627-.164C79.58.548 85.663 4.337 87.073 10.419c1.41 6.083-2.39 12.153-8.485 13.56a11.323 11.323 0 0 1-7.343-.763l-.284-.145-.024.15c-1.659 9.356-9.865 16.313-19.538 16.285l-.677-.014c-10.927-.4-19.462-9.56-19.061-20.463.4-10.902 9.585-19.415 20.512-19.015L51.506 0zm.58 2.378c-9.622-.351-17.707 7.143-18.06 16.738-.353 9.595 7.16 17.66 16.782 18.011 9.373.343 17.326-6.775 18.019-16.075a1.183 1.183 0 0 1 1.806-.915l.069.038c.066.036.066.036.216.126a8.954 8.954 0 0 0 7.138 1.371c4.822-1.112 7.826-5.911 6.711-10.719-1.114-4.808-5.928-7.806-10.75-6.693a8.937 8.937 0 0 0-6.252 5.271 1.183 1.183 0 0 1-2.058.226 17.41 17.41 0 0 0-13.62-7.379z" fill="#222" fill-rule="nonzero"/>
            <path d="M66.272 27.729c0 2.459-1.948 4.453-4.352 4.453-2.403 0-4.351-1.994-4.351-4.453 0-2.46 1.948-4.453 4.351-4.453 2.404 0 4.352 1.993 4.352 4.453M39.967 26.174a4.473 4.473 0 0 1-2.493 4.03 18.614 18.614 0 0 1-1.363-2.168 18.63 18.63 0 0 1-1.985-6.046 4.262 4.262 0 0 1 1.49-.268c2.404 0 4.35 1.994 4.35 4.452" fill="#FFF"/>
            <path d="M48.154 22.933a.969.969 0 0 1 .785 1.123l-.301 1.7a.969.969 0 0 1-1.908-.339l.3-1.7a.969.969 0 0 1 1.124-.784z" fill="#222" fill-rule="nonzero"/>
            <ellipse fill="#E26E42" transform="rotate(-32 41.898 35.648)" cx="41.898" cy="35.648" rx="2.924" ry="2.318"/>
            <path d="M44.16 29.385s2.017 2.318 3.12 2.28c2.481-.087 2.958-2.432 2.958-2.432" fill="#FFFDA5"/>
            <path d="M43.636 28.784a.797.797 0 0 1 1.124.077c.233.267.625.679 1.078 1.084.258.231.505.43.732.586.333.229.59.34.683.337.826-.03 1.39-.362 1.79-.917.246-.343.375-.685.414-.876a.797.797 0 1 1 1.562.317c-.08.394-.285.937-.682 1.49-.674.937-1.683 1.532-3.028 1.579-.521.018-1.052-.21-1.643-.617a9.075 9.075 0 0 1-.891-.711c-.51-.457-.945-.912-1.217-1.225a.797.797 0 0 1 .078-1.124z" fill="#222" fill-rule="nonzero"/>
            <path d="M44.9 28.173a3.415 3.415 0 0 1 2.79-.098c.132.054.268.103.406.145 1.075.327 2.236.286 3.318.023a4.97 4.97 0 0 0 .547-.16.797.797 0 1 1 .57 1.488c-.15.058-.403.139-.74.221-1.336.325-2.771.375-4.16-.048a6.315 6.315 0 0 1-.543-.193 1.821 1.821 0 0 0-1.485.052c-1.516.746-2.654.839-3.442.445a1.429 1.429 0 0 1-.493-.384.797.797 0 0 1 1.259-.978c-.039-.05-.059-.067-.052-.064.29.146.92.094 2.025-.45z" fill="#222" fill-rule="nonzero"/>
            <path d="M45.335 21.237c0 2.197-1.165 3.978-2.603 3.978-1.437 0-2.603-1.781-2.603-3.978s1.166-3.979 2.603-3.979c1.438 0 2.603 1.782 2.603 3.979M56.919 21.031c0 2.197-1.166 3.978-2.603 3.978-1.438 0-2.604-1.78-2.604-3.978 0-2.197 1.166-3.978 2.604-3.978 1.437 0 2.603 1.781 2.603 3.978" fill="#222"/>
            <path d="M41.876 21.328a.726.726 0 1 1-1.452-.001.726.726 0 0 1 1.452.001M53.46 21.123a.726.726 0 1 1-1.453-.002.726.726 0 0 1 1.452.002" fill="#FFF"/>
            <path d="M71.13 13.209c.6-.31 1.339-.075 1.65.526.151.294.498.795 1.021 1.297 1.378 1.32 3.05 1.731 5.24.73a1.224 1.224 0 0 1 1.018 2.227c-3.174 1.452-5.895.783-7.952-1.19-.744-.712-1.237-1.425-1.503-1.94-.31-.601-.075-1.34.525-1.65z" fill="#FFFDA5" fill-rule="nonzero"/>
        </g>
        <path d="M53.336 26.18c7.82-.783 10.242-.722 17.342.077 7.1.799 18.639 5.95 26.08 4.85 7.44-1.102 7.379-7.849 7.379-7.849s-1.025 3.924-6.402 1.708c-5.378-2.215-6.607-5.577-13.464-6.612-6.857-1.036-8.902 2.456-14.26 2.194-5.357-.263-8.116-4.518-17.606-3.567-9.49.952-11.34 5.67-16.538 6.99-5.197 1.32-7.901-1.696-14.413.68-6.512 2.376-7.042 5.913-11.867 9.152C4.762 37.04 2.97 33.4 2.97 33.4s1.293 6.623 8.805 6.226c7.511-.398 17.785-7.737 24.582-9.929 6.798-2.192 9.16-2.732 16.978-3.516" fill="#73AB5E"/>
        <path d="m83.638 17.075.81.109c3.539.534 5.582 1.492 8.579 3.614l.832.59c1.676 1.185 2.809 1.859 4.327 2.484 2.25.927 3.546.713 4.319-.114.289-.309.444-.635.487-.799.349-1.337 2.315-1.093 2.328.288 0 .055 0 .055-.005.207a9.425 9.425 0 0 1-1.622 4.873c-1.413 2.08-3.644 3.488-6.762 3.95-3.404.504-7.44-.1-13.437-1.684a231.34 231.34 0 0 1-3.02-.825c-5.885-1.638-7.679-2.083-9.928-2.336-7.226-.812-9.562-.829-17.092-.074-7.528.755-9.814 1.234-16.732 3.465-2.27.733-2.963 1.065-10.095 4.684-1.676.85-2.938 1.472-4.174 2.046-4.318 2.006-7.67 3.098-10.615 3.254-3.945.209-6.77-1.3-8.552-3.876-.868-1.254-1.312-2.463-1.476-3.305-.265-1.356 1.613-1.988 2.223-.748.039.078.164.263.37.463.92.894 2.271.991 4.525-.52 1.541-1.035 2.294-1.748 4.316-3.907 2.622-2.8 4.385-4.127 7.804-5.375 3.24-1.182 5.263-1.234 9.007-.691.358.052.514.074.708.1 1.989.274 3.258.271 4.813-.124 1.287-.327 2.37-.87 3.905-1.881.01-.007 1.903-1.283 2.508-1.666 3.076-1.944 6.046-3.047 10.298-3.473 4.839-.485 7.864.131 12.124 1.894.052.021.885.368 1.122.465.412.169.747.301 1.067.42 1.292.479 2.343.728 3.47.783 1.687.083 2.907-.18 5.05-.942l.557-.2c3.353-1.198 5.433-1.545 8.771-1.04l-.81-.109zm.457 2.449c-2.885-.436-4.604-.15-7.621.929l-.561.2c-2.41.858-3.897 1.178-5.96 1.077-1.396-.069-2.674-.372-4.176-.928a35.506 35.506 0 0 1-1.464-.582l-.42-.174-.386-.161c-3.93-1.626-6.586-2.167-10.984-1.726-3.865.387-6.49 1.362-9.27 3.119-.57.36-2.434 1.618-2.47 1.642-1.737 1.143-3.035 1.794-4.624 2.198-1.902.483-3.454.486-5.718.175a87.884 87.884 0 0 1-.725-.103c-3.391-.492-5.058-.449-7.856.572-3.015 1.1-4.498 2.217-6.888 4.77-2.142 2.286-2.989 3.087-4.726 4.253-1.5 1.007-2.87 1.495-4.082 1.55H5.83l.29.302c1.198 1.156 2.82 1.821 4.987 1.823l.605-.016c2.57-.136 5.678-1.149 9.743-3.037 1.207-.56 2.447-1.17 4.1-2.01 7.313-3.71 7.989-4.036 10.44-4.826 7.077-2.282 9.527-2.796 17.222-3.568 7.697-.771 10.201-.754 17.593.078 2.43.273 4.26.727 10.297 2.407 1.268.353 2.123.587 2.99.817 5.7 1.506 9.496 2.073 12.486 1.63 2.461-.364 4.109-1.403 5.151-2.938l.189-.303-.123.032c-1.111.223-2.429.095-3.94-.444l-.577-.222c-1.712-.705-2.982-1.461-4.79-2.739l-.834-.592c-2.721-1.926-4.445-2.734-7.565-3.205z" fill="#222" fill-rule="nonzero"/>
        <path d="M26.338 36.613c.046-.165.118-.328.227-.516a7.33 7.33 0 0 1 .821-.493c.452-.198.918-.35 1.401-.46a7.943 7.943 0 0 1 1.546-.095c.45.045.89.13 1.322.26.462.174.898.395 1.315.659.27.193.527.402.773.621.303.314.6.633.874.972.115.144 1.372 1.777 1.702 2.24.276.387.53.79.78 1.194.557.9 1.116 1.811 1.536 2.78.335.775.582 1.58.698 2.413.076.552.073 1.104.02 1.657-.068.412-.172.81-.32 1.2-.135.285-.291.556-.472.814a4.411 4.411 0 0 1-.513.506c-.259.176-.53.323-.816.452-.182.068-.366.13-.553.187a1.364 1.364 0 0 0-.486.266l-.054.003a9.03 9.03 0 0 1-.473.01c-.065 0-.124-.004-.183-.047a.249.249 0 0 1-.095-.161.238.238 0 0 1 .048-.18c.035-.046.103-.092.163-.092.142 0 .286-.003.429-.009l-.168-.07a9.935 9.935 0 0 1-.389-.175 4.027 4.027 0 0 1-.795-.523 8.782 8.782 0 0 1-1.21-1.221c-.789-.95-1.432-2.028-2.01-3.053-.218-.385-1.58-2.841-1.66-2.976 0 0-1.313-2.27-1.612-2.769a34.56 34.56 0 0 0-.583-.936c-.094-.144-.187-.289-.286-.43-.054-.077-.12-.147-.185-.215 0 0-.155-.161-.222-.228a8.152 8.152 0 0 1-.337-.355 1.69 1.69 0 0 1-.2-.275.872.872 0 0 1-.093-.294 1.477 1.477 0 0 1 .06-.66" fill="#E26E42"/>
        <path d="m31.492 37.894.167.287c.19.327.388.65.586.97.414.667.84 1.32 1.262 1.978.834 1.3 1.66 2.615 2.361 4.03.141.234.28.47.415.71.335.594.613 1.152.851 1.708.148.343.258.625.346.887.088.262.155.55.197.855a4.092 4.092 0 0 1 .015.948 4.916 4.916 0 0 1-.402.618c-.447.578-.967 1.058-1.511 1.487a9.685 9.685 0 0 1-2.333 1.276c-.775.265-1.567.44-2.375.455a5.708 5.708 0 0 1-1.845-.257 6.357 6.357 0 0 1-1.71-.86 8.081 8.081 0 0 1-1.583-1.464 8.984 8.984 0 0 1-1.804-3.544 10.517 10.517 0 0 1-.305-2.217c-.03-.927.069-1.84.226-2.741.14-.716.317-1.417.526-2.105.121-.399.248-.796.382-1.188.079-.23.162-.456.237-.687l.041-.126a6.272 6.272 0 0 0 .09-.32l.007-.04c0-.002.117.234.001-.006-.116-.24-1.869-9.448-1.58-10.342.29-.893 1.83-1.327 2.468-1.605.638-.278.65.944 1.078 2.994.851 4.08 3.903 7.85 4.192 8.299z" fill="#FFC581"/>
        <path d="M29.895 41.5a29.207 29.207 0 0 1-.259-.299c.085.1.174.199.259.298zm-.807-2.017c1.819 2.166 3.525 4.459 4.754 7.004.374.774.702 1.572.972 2.387.041.125-.05.261-.173.293-.134.035-.257-.046-.3-.17a19.208 19.208 0 0 0-.53-1.408l.025.06c-.988-2.328-2.399-4.458-3.962-6.448l.013.018a49.298 49.298 0 0 0-1.143-1.396.25.25 0 0 1-.072-.173c0-.063.027-.123.07-.167a.25.25 0 0 1 .176-.071h.012a.235.235 0 0 1 .158.07z" fill="#E26E42"/>
        <g>
            <path d="M47.95 60.68c-1.589 1.755-11.489 1.166-18.488-5.213 0 0 7.417.887 8.112-3.216 6.699 4.656 12.964 5.57 10.376 8.43" fill="#FFF"/>
            <path d="M31.004 57.24c5.102 4.863 17.174 6.009 18.42 2.337.689-2.03-.576-3.372-3.247-4.574-.935-.421-4.75-1.856-4.927-1.927-1.865-.744-3.238-1.425-4.347-2.208-.81-.571-1.92.047-1.86 1.036.08 1.31-.445 2.138-1.463 2.707-.686.383-1.419.56-1.864.598l-.223.04c-.85.236-1.168 1.343-.489 1.99zm3.398-.395.33-.173c1.133-.633 1.97-1.54 2.385-2.712l.05-.16.181.098c.66.35 1.383.687 2.19 1.028l.837.343c.24.096 3.979 1.502 4.833 1.887 1.673.752 2.126 1.233 1.98 1.662-.453 1.336-8.15.778-12.786-1.973z" fill="#222" fill-rule="nonzero"/>
            <path d="M36.29 51.706s-.524 3.868-4.471 4.68c0 0-3.816-2.716-1.829-5.469 2.25-3.116 6.3.79 6.3.79" fill="#11D073"/>
            <path d="m31.814 57.566.242-.025c1.959-.402 3.394-1.469 4.345-2.954.657-1.027.963-2.018 1.058-2.722a1.18 1.18 0 0 0-.35-1.008 10.15 10.15 0 0 0-1.571-1.209c-1.28-.809-2.566-1.248-3.83-1.085-1.054.135-1.974.693-2.675 1.663a4.168 4.168 0 0 0-.703 1.526c-.357 1.58.283 3.056 1.48 4.387.498.553.982.964 1.324 1.208.267.19.601.26.922.194l-.242.025zm.284-2.474-.105-.096a7.202 7.202 0 0 1-.428-.436c-.736-.82-1.083-1.62-.932-2.288.049-.216.15-.435.314-.664.323-.447.662-.652 1.061-.704.606-.077 1.41.197 2.268.74.216.136.413.274.588.405l.11.088-.061.18a5.27 5.27 0 0 1-.298.652l-.203.345c-.467.73-1.094 1.292-1.927 1.64l-.387.138z" fill="#222" fill-rule="nonzero"/>
        </g>
        <path d="M44.553 2.01c13.206-3.046 23.442.996 30.063 11.954a2.706 2.706 0 0 1-4.631 2.799C64.602 7.853 56.745 4.75 45.86 7.259 33.01 10.697 27.483 18.246 28.658 30.608a2.706 2.706 0 1 1-5.387.512C21.84 16.07 29.11 6.139 44.553 2.01z" fill="#FFC581" fill-rule="nonzero"/>
        <g>
            <g transform="translate(17 67)">
                <use fill="#000" filter="url(#lkwx3zb8nc)" xlink:href="#ujy8ydboud"/>
                <use fill="#FFF" xlink:href="#ujy8ydboud"/>
            </g>
            <g fill="#222" fill-rule="nonzero">
                <path d="M27.861 80.006a.646.646 0 0 1 .26-.438.562.562 0 0 1 .479-.123.64.64 0 0 1 .45.274c.101.118.151.255.151.41 0 .027-.004.06-.014.096a13.811 13.811 0 0 1-.505 2.31.532.532 0 0 1-.342.342.62.62 0 0 1-.219.041.607.607 0 0 1-.273-.068.73.73 0 0 1-.41-.67c0-.073.013-.15.04-.233.155-.51.283-1.157.383-1.941zm3.35.191a.694.694 0 0 1-.027-.191c0-.091.022-.178.068-.26a.587.587 0 0 1 .342-.3.694.694 0 0 1 .492.041.58.58 0 0 1 .314.355c.146.4.26.797.342 1.19.018.054.028.109.028.163a.607.607 0 0 1-.11.342.673.673 0 0 1-.41.328.516.516 0 0 1-.164.028.55.55 0 0 1-.287-.082.599.599 0 0 1-.26-.383 12.44 12.44 0 0 0-.328-1.23zm3.541-4.457c-.073 0-.11.032-.11.096v.533c0 .073.037.11.11.11h3.541c.073 0 .11-.037.11-.11v-.533c0-.064-.037-.096-.11-.096h-3.541zm0-1.928c-.073 0-.11.037-.11.11v.506c0 .064.037.095.11.095h3.541c.073 0 .11-.031.11-.095v-.506c0-.073-.037-.11-.11-.11h-3.541zm3.951 4.895a.88.88 0 0 1 .56-.3h.11a.8.8 0 0 1 .492.163l.055.028c.173.127.26.3.26.52 0 .19-.078.35-.233.478-.52.428-.92.747-1.203.957-.055.045-.06.095-.014.15.383.483.825.884 1.327 1.203a.67.67 0 0 1 .314.465.634.634 0 0 1-.123.533l-.027.055a.847.847 0 0 1-.52.355.65.65 0 0 1-.178.028.652.652 0 0 1-.41-.15c-.674-.52-1.253-1.213-1.736-2.079 0-.009-.007-.011-.02-.007-.014.005-.021.012-.021.021v1.49c0 .374-.041.663-.123.868a.9.9 0 0 1-.438.472c-.264.137-.656.214-1.175.232h-.028a.797.797 0 0 1-.52-.191 1.064 1.064 0 0 1-.341-.52.768.768 0 0 1-.014-.15c0-.11.032-.214.096-.314a.482.482 0 0 1 .41-.205h.424c.091-.01.15-.028.178-.055.027-.027.04-.078.04-.15V79.35c0-.01-.002-.014-.006-.014-.005 0-.012.004-.02.014-.21.847-.502 1.595-.876 2.242a5.986 5.986 0 0 1-1.326 1.613.727.727 0 0 1-.437.15h-.123a.903.903 0 0 1-.534-.3.603.603 0 0 1-.164-.424.61.61 0 0 1 .246-.506c.648-.51 1.144-1.171 1.49-1.982.01-.028.008-.05-.006-.069-.014-.018-.03-.027-.048-.027h-.451a.769.769 0 0 1-.574-.24.787.787 0 0 1-.233-.567v-.396c0-.018-.011-.034-.034-.048-.023-.014-.043-.016-.062-.007l-.19.082a.582.582 0 0 1-.26.068.607.607 0 0 1-.274-.068.576.576 0 0 1-.342-.41c-.018-.064-.06-.091-.123-.082l-.506.04c-.064 0-.096.037-.096.11v4.977c0 .191-.07.358-.211.499a.69.69 0 0 1-.506.212.69.69 0 0 1-.506-.212.683.683 0 0 1-.212-.5V78.64c0-.073-.032-.105-.096-.096l-1.12.082a.225.225 0 0 1-.07.014.742.742 0 0 1-.478-.178.695.695 0 0 1-.26-.492.303.303 0 0 1-.013-.096c0-.155.055-.296.164-.424a.65.65 0 0 1 .492-.246l.178-.014a.207.207 0 0 0 .164-.082 9.97 9.97 0 0 0 .506-.656c.036-.055.036-.114 0-.178-.265-.41-.62-.865-1.067-1.367a.837.837 0 0 1-.218-.574c0-.182.05-.346.15-.492l.178-.246a.34.34 0 0 1 .246-.137c.1-.01.191.018.273.082.028.027.046.027.055 0 .273-.538.52-1.094.738-1.668a.753.753 0 0 1 .397-.424.728.728 0 0 1 .574-.04.614.614 0 0 1 .396.382.602.602 0 0 1 .055.246c0 .1-.027.2-.082.3-.465.903-.857 1.6-1.176 2.093-.036.054-.032.11.014.164.1.11.205.237.314.383.019.027.04.038.062.034a.12.12 0 0 0 .061-.034c.329-.529.62-1.035.875-1.518a.708.708 0 0 1 .438-.37.602.602 0 0 1 .246-.054c.11 0 .219.028.328.082a.618.618 0 0 1 .342.397.607.607 0 0 1-.082.533 52.143 52.143 0 0 1-2.12 2.98c-.017.019-.022.037-.013.055.01.018.023.023.041.014l1.012-.055a.067.067 0 0 0 .061-.034c.014-.023.016-.043.007-.062a5.665 5.665 0 0 0-.11-.232.607.607 0 0 1-.068-.274c0-.063.014-.132.041-.205a.534.534 0 0 1 .315-.341.731.731 0 0 1 .273-.055c.082 0 .16.014.233.041.173.064.3.173.383.328.446.866.752 1.622.916 2.27.027.09-.01.16-.11.205 0 .009.005.013.014.013h1.285c.602 0 1.117.082 1.545.246.018.01.039.007.062-.006.022-.014.034-.03.034-.048v-1.026c0-.073-.032-.109-.096-.109h-1.791a.769.769 0 0 1-.574-.24.787.787 0 0 1-.233-.567v-3.609c0-.219.078-.408.233-.567a.769.769 0 0 1 .574-.24h1.271c.064 0 .11-.032.137-.095.073-.174.141-.351.205-.534.082-.218.219-.391.41-.52a.86.86 0 0 1 .643-.137l.273.042a.542.542 0 0 1 .424.301.527.527 0 0 1 0 .52c-.064.118-.127.232-.191.341a.058.058 0 0 0 0 .055c.009.018.027.027.055.027h1.968c.228 0 .42.08.575.24.154.16.232.348.232.567v3.61a.787.787 0 0 1-.232.567.769.769 0 0 1-.575.239h-1.763c-.037 0-.055.02-.055.062 0 .04.004.084.014.13.164.528.346 1.007.546 1.435.037.064.078.073.124.027.246-.246.473-.478.683-.697zM48.451 81.756c0 .064.032.096.096.096h5.017c.22 0 .408.08.568.239.16.16.24.348.24.567v.069c0 .218-.08.407-.24.567a.775.775 0 0 1-.568.24H42.45a.775.775 0 0 1-.567-.24.775.775 0 0 1-.24-.567v-.069c0-.219.08-.408.24-.567.16-.16.348-.24.567-.24h4.102c.073 0 .11-.031.11-.095v-9.639c0-.219.077-.408.232-.567a.769.769 0 0 1 .574-.24h.178c.218 0 .407.08.567.24.16.16.24.348.24.567v3.09c0 .073.031.11.095.11h4.033a.78.78 0 0 1 .574.232.78.78 0 0 1 .233.574v.082a.787.787 0 0 1-.233.567.769.769 0 0 1-.574.24h-4.033c-.064 0-.096.032-.096.095v4.649zM59.854 79.814c-.01 0-.012.007-.007.021.004.014.011.02.02.02h4.348c.009 0 .016-.004.02-.013.005-.01.003-.018-.006-.028a13.59 13.59 0 0 1-2.202-.86.234.234 0 0 0-.191 0c-.665.336-1.326.623-1.982.86zm-.165 2.489c0 .073.037.11.11.11h4.457c.064 0 .096-.037.096-.11v-.985c0-.063-.032-.095-.096-.095h-4.457c-.073 0-.11.032-.11.095v.985zm.711-6.358a.118.118 0 0 0-.075.028c-.023.018-.025.036-.007.054.456.41.962.766 1.518 1.067.064.036.123.036.178 0a7.992 7.992 0 0 0 1.38-1.08c.019-.01.023-.023.014-.041-.009-.019-.023-.028-.04-.028H60.4zm4.239-1.258a.92.92 0 0 1 .15-.013c.11 0 .214.027.315.082l.341.205c.155.091.251.228.287.41a.366.366 0 0 1 .028.137.607.607 0 0 1-.11.342c-.51.701-1.166 1.358-1.968 1.968-.019.01-.025.025-.02.048a.064.064 0 0 0 .033.048c1.203.42 2.557.725 4.06.916a.43.43 0 0 1 .356.274.586.586 0 0 1 .041.205c0 .09-.03.18-.089.266l-.17.253c-.128.21-.301.37-.52.479a1.01 1.01 0 0 1-.478.123c-.064 0-.128-.005-.192-.014l-.533-.096c-.064-.018-.096.01-.096.082v2.98c0 .22-.08.409-.239.568a.775.775 0 0 1-.567.24h-.561a.344.344 0 0 1-.253-.103.344.344 0 0 1-.102-.253c0-.036-.014-.055-.041-.055h-4.567c-.036 0-.055.019-.055.055a.371.371 0 0 1-.382.383h-.438a.787.787 0 0 1-.567-.233.769.769 0 0 1-.24-.574v-2.926c0-.027-.009-.047-.027-.061a.11.11 0 0 0-.068-.02c-.31.09-.634.173-.97.245a.848.848 0 0 1-.206.028.886.886 0 0 1-.437-.123c-.201-.11-.356-.27-.465-.479a.159.159 0 0 0-.028-.04.607.607 0 0 1-.068-.274c0-.082.018-.164.055-.246a.468.468 0 0 1 .382-.301c1.486-.292 2.826-.697 4.02-1.217.027-.009.041-.025.041-.048s-.01-.038-.027-.048a10.742 10.742 0 0 1-1.108-.916c-.045-.045-.095-.05-.15-.013-.292.182-.593.355-.902.52a.963.963 0 0 1-.643.068 1.061 1.061 0 0 1-.56-.356.09.09 0 0 0-.042-.04.532.532 0 0 1-.15-.37.45.45 0 0 1 .014-.11.534.534 0 0 1 .3-.382c1.404-.647 2.448-1.454 3.131-2.42a.058.058 0 0 0 0-.055c-.009-.018-.027-.027-.054-.027h-2.366c-.063 0-.095.036-.095.11v.642c0 .219-.08.408-.24.567a.775.775 0 0 1-.567.24h-.027a.769.769 0 0 1-.575-.24.787.787 0 0 1-.232-.567V73.1a.78.78 0 0 1 .232-.574.78.78 0 0 1 .575-.232h4.197c.064 0 .096-.037.096-.11v-.218c0-.228.08-.42.239-.574a.787.787 0 0 1 .567-.233H62a.78.78 0 0 1 .574.233.78.78 0 0 1 .233.574v.219c0 .072.036.109.109.109h4.28a.78.78 0 0 1 .574.232.78.78 0 0 1 .232.575v1.449a.787.787 0 0 1-.232.567.769.769 0 0 1-.575.24H67.1a.775.775 0 0 1-.568-.24.775.775 0 0 1-.239-.567v-.643c0-.073-.032-.11-.096-.11h-5.646c-.01 0-.014.005-.014.014 0 .01.005.014.014.014l.806.15a.414.414 0 0 1 .301.267.377.377 0 0 1-.054.39c-.01.009-.012.023-.007.04.004.02.016.028.034.028h2.94a.225.225 0 0 0 .068-.014zM71.79 77.928c0 .064.031.095.095.095h1.19c.063 0 .095-.031.095-.095v-1.49c0-.064-.032-.096-.096-.096h-1.176c-.063 0-.095.032-.095.095v.274c0 .529-.005.934-.014 1.217zm1.38-4.649c0-.073-.032-.11-.096-.11h-1.176c-.063 0-.095.037-.095.11v1.408c0 .073.032.11.095.11h1.176c.064 0 .096-.037.096-.11V73.28zm.738-1.64c.219 0 .408.077.568.232.16.155.239.346.239.574v9.953c0 .41-.041.732-.123.964a1.053 1.053 0 0 1-.451.554c-.265.155-.648.25-1.149.287h-.055a.834.834 0 0 1-.546-.205 1.104 1.104 0 0 1-.356-.574.121.121 0 0 0-.014-.055.546.546 0 0 1 .082-.506.523.523 0 0 1 .452-.232c.063 0 .136-.002.218-.007a3.7 3.7 0 0 1 .164-.007c.083 0 .142-.018.178-.055.037-.036.055-.1.055-.19v-2.667c0-.073-.032-.11-.096-.11h-1.271c-.064 0-.1.037-.11.11-.118 1.522-.35 2.79-.697 3.8a.506.506 0 0 1-.369.37.899.899 0 0 1-.219.027.646.646 0 0 1-.328-.095.927.927 0 0 1-.41-.465 1.032 1.032 0 0 1-.055-.328c0-.091.014-.183.041-.274.192-.574.337-1.248.438-2.023.1-.775.16-1.445.177-2.01.019-.565.028-1.23.028-1.996v-4.266c0-.228.08-.419.24-.574a.787.787 0 0 1 .566-.232h2.803zm3.254 6.398c-.009-.027-.027-.04-.055-.04-.027 0-.04.017-.04.054v4.744c0 .027.009.045.027.055.018.009.036.009.054 0 .538-.31 1.058-.743 1.559-1.3.046-.054.05-.109.014-.163-.602-.912-1.121-2.028-1.559-3.35zm3.363.068a.075.075 0 0 0-.013-.075.084.084 0 0 0-.069-.034h-1.777a.067.067 0 0 0-.062.034.087.087 0 0 0-.006.075c.264.711.592 1.377.984 1.997a.085.085 0 0 0 .062.027c.022 0 .038-.01.047-.027.338-.611.616-1.276.834-1.997zm.616-1.613c.063-.009.123-.013.177-.013.092 0 .178.013.26.04l.287.096a.582.582 0 0 1 .322.26.565.565 0 0 1 .075.41c-.32 1.568-.83 2.93-1.532 4.088-.036.055-.031.11.014.164.41.401.839.743 1.285 1.025a.62.62 0 0 1 .315.438.652.652 0 0 1-.137.533l-.041.041a.869.869 0 0 1-.533.342.65.65 0 0 1-.178.027.754.754 0 0 1-.424-.136 8.742 8.742 0 0 1-1.23-1.026c-.055-.045-.105-.045-.15 0a7.028 7.028 0 0 1-1.094.985.745.745 0 0 1-.41.123c-.055 0-.114-.005-.178-.014a.864.864 0 0 1-.52-.342 3.457 3.457 0 0 0-.314-.369c-.01-.018-.023-.023-.041-.014-.018.01-.028.023-.028.041v.246a.764.764 0 0 1-.232.561.764.764 0 0 1-.56.232.764.764 0 0 1-.561-.232.764.764 0 0 1-.233-.56V72.458c0-.228.08-.42.24-.574a.787.787 0 0 1 .567-.233h4.826a.78.78 0 0 1 .574.233.78.78 0 0 1 .233.574v1.887c0 .383-.052.676-.157.882-.105.205-.299.357-.581.458-.328.127-.884.2-1.668.218H79.5a.887.887 0 0 1-.56-.205 1.261 1.261 0 0 1-.37-.52.559.559 0 0 1-.027-.177.46.46 0 0 1 .082-.26.435.435 0 0 1 .383-.205h.601c.183 0 .324-.004.424-.014.11 0 .185-.016.226-.047.04-.032.061-.09.061-.171v-1.012c0-.073-.032-.11-.095-.11h-3.063c-.064 0-.096.037-.096.11v3.103c0 .073.032.11.096.11h3.924a.121.121 0 0 0 .055-.014z"/>
            </g>
        </g>
        <g>
            <path d="M73.3 66.777s2.037 4.57 5.982 1.783c3.361-2.376-.865-7.774-.865-7.774l-5.117 5.99z" fill="#37D787"/>
            <path d="M74.46 68.72c2.086 1.815 4.456 2.059 6.42-.247 1.265-1.486 1.1-3.288.007-5.098-.435-.72-.999-1.414-1.639-2.068a12.896 12.896 0 0 0-1.087-1.004 1.177 1.177 0 0 0-1.653.18l-3.814 4.726c-.315.39-.349.938-.083 1.363a9.907 9.907 0 0 0 1.848 2.148zm.63-2.732 2.462-3.048c.405.414.758.828 1.05 1.241l.27.412c.626 1.037.695 1.79.214 2.353-.97 1.14-1.874 1.047-3.081-.003a7.708 7.708 0 0 1-.835-.855l-.08-.1z" fill="#222" fill-rule="nonzero"/>
        </g>
    </g>
</svg>
