<svg width="173" height="20" viewBox="0 0 173 20" xmlns="http://www.w3.org/2000/svg">
    <path d="m43.498 0-.31 2.454a1.782 1.782 0 0 1-1.766 1.555H37.14l-1.705 13.824a1.72 1.72 0 0 1-1.706 1.508h-2.678l1.89-15.332h-5.146L28.301 0h15.197zm5.383 7.043-.636 3.831-1.608-.01c-1.421.103-2.52 1.19-2.724 2.702l-.577 4.287a1.724 1.724 0 0 1-1.703 1.487h-2.409l.811-6.264c.427-3.173 3.097-5.647 6.348-5.882l2.498-.15zM96.551 0l-2.357 19.341h2.416c.868 0 1.602-.65 1.707-1.51L100.489 0H96.55zM58.38 14.202a2.728 2.728 0 0 1-2.651 2.066 2.737 2.737 0 0 1-2.737-2.732 2.738 2.738 0 0 1 2.737-2.734 2.743 2.743 0 0 1 2.734 2.693l-.083.707zm.677-5.693a6.019 6.019 0 0 0-4.207-.94c-2.867.404-5.04 2.855-5.154 5.744-.137 3.426 2.203 6.228 5.209 6.228 1.566 0 2.356-.465 2.969-.964l-.105.764h3.707l1.41-11.611H59.15l-.092.779zm-55.62 6.108c-.204-.897-.051-1.911.406-2.685.427-.722 1.075-1.192 1.923-1.393.308-.072.607-.11.887-.11.243 0 .474.029.694.083l-3.91 4.105zm6.39-6.645a5.904 5.904 0 0 0-3.165-.888c-.517 0-1.075.06-1.667.201-1.744.412-3.14 1.43-4.035 2.945C.01 11.832-.253 13.868.25 15.676c.56 2.014 2.364 3.633 4.492 4.027.399.075.878.119 1.405.119 1.73 0 3.953-.48 5.382-1.959.333-.346.5-.818.459-1.3a1.68 1.68 0 0 0-.69-1.211l-1.273-.918-.092.126c-.897 1.24-2.446 2.039-3.653 1.922l5.758-6.043c-.63-1.547-2.212-2.467-2.212-2.467zm59.844-.615 1.801 5.646 3.281-5.646h4.716l-8.561 12.627h-.306L64.707 7.357h4.964zm14.374-.1c2.079-.492 3.713-.015 4.832.687.13.078 1.608.984 2.21 2.466l-5.756 6.044c1.207.117 2.756-.682 3.653-1.922l.09-.126 1.275.918c.394.285.646.727.689 1.212.042.48-.124.954-.457 1.298-1.43 1.48-3.655 1.96-5.384 1.96a7.819 7.819 0 0 1-1.404-.12c-2.127-.394-3.932-2.012-4.493-4.025-.503-1.81-.237-3.845.71-5.447.896-1.514 2.29-2.533 4.035-2.945zm1.657 3.145c-.28 0-.578.037-.886.109-.848.201-1.495.67-1.923 1.392-.458.775-.608 1.788-.407 2.686l3.91-4.106a2.918 2.918 0 0 0-.694-.081zm-60.69-.705c.296-.365.353-.855.15-1.28a1.199 1.199 0 0 0-1.091-.687h-5.99a.9.9 0 0 1-.88-1.08v-.006c-.97 0-1.787.727-1.9 1.69-.091.801.083 1.452.517 1.932.435.48.993.724 1.657.724h2.307l-5.162 6.385a1.201 1.201 0 0 0-.148 1.28 1.2 1.2 0 0 0 1.09.686h7.884c.867 0 1.6-.65 1.706-1.507l.217-1.753h-5.535l5.178-6.384zM131.31 5.61s-.181.602 1.278.602c.486 0 .582-.006.992-.014.681-.013 1.192.498 1.116 1.079l-.022.11-2.565 9.976 15.175.032-.493 1.222a1.3 1.3 0 0 1-1.065.807l-.129.007h-12.75a1.21 1.21 0 0 1-1.165-.868c-.341.462-.931.763-1.579.763-.881 0-1.647-.427-1.789-1.16l-.02-.14-.065-.817s1.361-.11 1.622-.905c.591-1.802 2.226-7.575 2.226-7.575s-.344-.028-.892-.059c-.53-.03-1.147-.809-.983-1.641.165-.834.705-1.143 1.108-1.42zm14.92-.056c.51-.013.937.155 1.284.504.36.335.345.705-.048 1.11l-1.779 2.153-.032.29h2.387s.031.72-.075 1.17c-.002.002-.002.002-.002.005-.116.53-.455.796-1.019.796h-1.508l-.044.402-.281 2.557c-.06.532-.155.944-.285 1.238-.13.28-.346.496-.648.649a2.78 2.78 0 0 1-1.455.357c-.659.013-1.05-.322-1.173-1.006-.123-.685.07-1.028.579-1.028h.873c.138-.012.217-.095.232-.251l.278-2.516.044-.402h-1.64c-.628 0-.905-.329-.832-.986.072-.657.422-.985 1.05-.985h1.638l.091-.844a.628.628 0 0 1 .2-.382l.553-.524c.25-.252.214-.377-.109-.377h-1.154c-.595 0-.856-.336-.783-1.006l.027-.253s.096-.541.733-.565zm-5.88.924c.527 0 .719.49.572 1.472-.133.969-.27 1.929-.414 2.882-.368 2.762-.77 4.42-1.203 4.975a1.81 1.81 0 0 1-1.145.768c-.46.087-.755.122-.881.108-.578-.015-.914-.356-1.009-1.025-.073-.634.096-.956.51-.965l.1.004h.385c.206 0 .377-.093.513-.278.275-.398.617-2.042 1.024-4.932.09-.59-.005-.909-.283-.954l-.073-.006h-.075l.278-2.05h1.7zM144.52.15c.577.188.787.533.631 1.034l-.042.118-.364.848-.16.31h4.088v.048c.002.134.002.523-.027.85l-.014.134-.004.033c-.07.643-.333.99-.787 1.039l-.118.006h-4.242l-.01.017-.002.002v.001l-.002.001-.005.008-.01.02-.013.02-.008.015a.698.698 0 0 1-.025.04l-.001.003-.009.017c-.058.12-.384.734-.964.828l-.15.012a1.5 1.5 0 0 1-1.049-.435c-.003-.005-.008-.008-.012-.012a.394.394 0 0 0-.02-.022.77.77 0 0 1-.21.062l-.126.012-.003.002h-2.858l-.155 1.404-.268 2.088c-.553 3.391-1.414 5.784-2.583 7.175-.301.406-.658.37-1.068-.11-.397-.492-.458-.934-.184-1.325 1.063-1.338 1.804-3.755 2.223-7.252l.049-.425.17-1.555h-.736c-.238 0-.413-.071-.528-.212l-.052-.076-.078-.102c-.205-.329-.189-.86-.114-1.327.097-.624.673-1.092 1.335-1.092l-.001.003a.565.565 0 0 0 .463.688l.096.01h1.234l-.256-1.88c-.079-.567.223-.914.907-1.044.636-.135 1.016.036 1.14.514l.025.115.2 2.294h1.071l.066.003.062.005h.82s-.061.44-.14.948c0 .038-.002.08-.004.12.777-1.366 1.45-3.22 1.552-3.509l.01-.029.005-.008V.58c.256-.48.675-.625 1.254-.43zm-11.725 1.432c.807 0 1.392.654 1.308 1.46l-.154 1.46h-1.461c-.807 0-1.393-.655-1.308-1.46.084-.806.807-1.46 1.615-1.46zm26.652-.113.074.14a.755.755 0 0 1-.035.637c-.302.595-1.538 2.443-1.894 2.972.463-.001 1.04-.007 1.389-.014.724-.014 1.228.597.964 1.235-.239.578-2.418 2.283-3.214 2.893l.278-.005h.068l.065.004h2.844l-.156 1.276c-.196.596-.795.746-1.267.765l-.106.002h-.75l-.47 5.076v.068l-.001.01v.013l-.161 2.45c-.045.494-.452.807-1.227.944-.1.02-.191.033-.276.041l-.122.008-.014.003c-.636.054-.76-.074-.76-.074.049-.072.092-.203.124-.324l.029-.115.005-.042c.08-.273.2-1.491.216-2.309l.001-.012v-.012l.531-5.725h-.045a64.279 64.279 0 0 0-.877-.053c-.529-.026-1.072-.72-.83-1.462.087-.263.237-.459.413-.613l.109-.087h-.001l2.254-1.973a22.171 22.171 0 0 0-.864-.072c-.527-.031-1.373-.222-1.118-1.087.041-.138.097-.26.163-.37l.07-.106h-.003l2.291-3.18c.484-.71.705-1.138.336-1.643.242-.07 1.502-.015 1.967.741zM173 .681l-1.895 18.015c-.06.57-.545 1.041-1.112 1.105l-.123.007-.863.005 1.81-17.201h-4.963l-.878-.006c-.738.053-1.57.701-1.831 1.462l-.042.143-.138 1.308-.569 5.408-.084.795-.027.265-.056.529-.239 2.263c-.225 2.152-.544 3.512-.769 4.267-.119.403-.532.708-1.005.757l-.13.008-1.138.003s.15-.469.328-1.135l.042-.157.05-.186c.107-.41.217-.872.313-1.333l.06-.322c.02-.118.039-.225.054-.323 0 .004 0 .008.002.011.032-.188.057-.372.075-.549l.005-.04a15228.622 15228.622 0 0 0 .863-8.19l.001-.009.1-.959.28-2.644c.4-1.66 1.82-3.184 3.707-3.29l.212-.007H173zm-19.643 12.324 1.798.23s-.413 2.095-.664 2.897l-.001.003c-.101.352-.206.683-.318.99 0 0-.002.001-.004.008l-.007.02c-.058.134-.22.692-.51.959-.37.338-.78.404-1.112.215l-.009-.005a.948.948 0 0 1-.351-.358l-.008-.01c-.084-.162-.186-.34-.186-.34.08-.12.239-.44.28-.522.194-.414.383-.992.567-1.737l.525-2.35zm6.336 0c-.257 2.922-.688 4.341-.928 5.071l-.052.157-.044.134c-.176-.038-.201-.091-.345-.256-.21-.237-.266-.704-.298-.897l-.011-.058-.001-.024a11.79 11.79 0 0 1-.083-.651l-.03-.345c-.03-.296-.045-.758-.052-1.23l-.004-.351-.002-.34v-.312c0-.304.003-.54.004-.629v-.039l1.846-.23zm9.34-9.246c.413.135.566.38.462.734l-.035.1-.263.614-1.027 1.882h1.4s-.022.568-.145.923c-.003.002-.003.002-.003.005-.123.375-.392.583-.807.621l-.144.007h-1.323l-.229 2.168h2.258s-.017.47-.113.821l-.032.102c-.125.38-.394.588-.81.626l-.143.006h-2.502l-.192 1.818c-.02.192.127.35.338.384l.082.006h2.818l-.078.745c-.04.37-.397.676-.825.725l-.118.007h-2.398c-.87 0-1.527-.564-1.527-1.284l.006-.129.24-2.272h-.28c-.553 0-.775-.26-.668-.777.1-.475.385-.733.859-.773l.133-.005h1.309l.227-2.168h-1.468c-.553 0-.775-.26-.668-.778.099-.476.385-.733.859-.773l.134-.005h2.344c.638-1.143 1.32-2.756 1.41-2.988l.009-.023.001-.004.002-.003c.185-.347.488-.452.907-.312zm-3.552.037c.554 0 .967.42.968.958l-.006.117-.113 1.074h-1.075a.949.949 0 0 1-.963-1.074 1.224 1.224 0 0 1 1.189-1.075zM110.772.13v.003a.551.551 0 0 0-.02.132c-.006.359.356.649.808.65h10.028c.658 0 .952.33.887.993l-.42 4.12h-.003l-.132 1.297h.003l-.097.979c-.069.662-.431.993-1.088.993h-8.176a24.192 24.192 0 0 1-.956 1.547l.015-.013h10.609c.951 0 1.64.671 1.512 1.476-.403 2.535-1.45 7.455-3.496 7.506-1.638.04-2.54-.227-3.028-.571-.779-.55-.353-1.557-.353-1.557s1.32.404 1.96.171c.558-.203 1.202-2.522 1.522-3.849.116-.482-.285-.903-.858-.903h-9.75c-.844.792-1.42 1.013-1.62 1.124-.382.212-1.415.282-1.82-.354a2.005 2.005 0 0 1-.304-1.233l.004-.033c2.44-.817 3.914-3.311 3.914-3.311h-.718c-.659 0-.954-.331-.885-.993l.65-6.396c0-.015.004-.027.006-.042.013-.145.03-.326.055-.514.095-.7.868-1.222 1.751-1.222zm7.415 13.51c-.63 1.534-1.217 2.589-2.08 3.921-.223.346-.396.609-.538.82-.328.48-.506.688-.762.934l-.022.02c-.363.347-1.035.379-1.264.38h-.078c-1.935-.141-1.354-1.87-1.321-2.033.034-.164.099-.355.185-.545 0 0 .567.472 1.645-.717.487-.618.925-1.364 1.545-2.78zm-4.783 0c-.63 1.534-1.216 2.589-2.08 3.921a46.54 46.54 0 0 1-.538.82c-.328.48-.505.688-.762.934l-.022.02c-.362.347-1.035.379-1.263.38h-.079c-1.935-.141-1.354-1.87-1.32-2.033.034-.164.098-.355.185-.545 0 0 .568.472 1.644-.717.487-.618.925-1.364 1.545-2.78zM119.353 2.9h-7.558c-.355 0-.552.18-.59.538l-.07.708h-.004l-.195 1.948-.126 1.235h7.94c.589-.048.683-.42.695-.484l.087-.826.004-.036h-7.762l.2-1.843h7.787l.072-.702c.035-.358-.123-.538-.48-.538z" fill="#11D073" fill-rule="evenodd"/>
</svg>
